Coordinates
version=1
nRows=11
nColumns=40
inDegrees=yes

Units are S.I. units (second, meters, Newtons, ...)
Angles are in degrees.

endheader
time	pelvis_tilt	pelvis_list	pelvis_rotation	pelvis_tx	pelvis_ty	pelvis_tz	hip_flexion_r	hip_adduction_r	hip_rotation_r	knee_angle_r	knee_angle_r_beta	ankle_angle_r	subtalar_angle_r	mtp_angle_r	hip_flexion_l	hip_adduction_l	hip_rotation_l	knee_angle_l	knee_angle_l_beta	ankle_angle_l	subtalar_angle_l	mtp_angle_l	lumbar_extension	lumbar_bending	lumbar_rotation	arm_flex_r	arm_add_r	arm_rot_r	elbow_flex_r	pro_sup_r	wrist_flex_r	wrist_dev_r	arm_flex_l	arm_add_l	arm_rot_l	elbow_flex_l	pro_sup_l	wrist_flex_l	wrist_dev_l
     35.83250000	     -5.40443578	     -6.19170194	      0.49130107	      1.01344629	      0.92870065	      0.54424301	     12.37072475	      5.10475912	    -16.80903336	     15.79253116	     15.79253116	     11.78363108	      5.78525744	     -3.17273003	     38.90092216	    -15.50809392	      1.27407105	     53.26536568	     53.26536568	     11.02428086	    -18.48000932	     15.28218072	    -14.62217315	      6.99309345	      4.35907464	     31.68027339	    -19.33167678	      5.95400886	     48.20889528	     45.43259331	      0.00000000	      0.00000000	     -0.16038727	     -7.87361093	     -5.56927594	     45.15895488	     47.24471557	      0.00000000	      0.00000000
     35.84385714	     -5.48426435	     -6.16748807	      0.63791464	      1.01248284	      0.92866412	      0.54419868	     11.68765831	      5.19403673	    -16.71979723	     15.24142357	     15.24142357	     11.95115346	      5.76032329	     -3.18715992	     39.34410232	    -15.22433505	      1.65467291	     50.31322692	     50.31322692	     10.54114241	    -18.18518096	     15.44901857	    -14.70070756	      6.93446048	      3.87292420	     33.93747137	    -19.06210589	      5.92553544	     50.40579832	     45.36739167	      0.00000000	      0.00000000	     -1.50627070	     -7.97362167	     -5.61151235	     43.01096771	     47.20611794	      0.00000000	      0.00000000
     35.85521429	     -5.61908571	     -6.19609852	      0.78093781	      1.01153489	      0.92839106	      0.54400533	     11.06572303	      5.32856132	    -16.64790351	     14.69034147	     14.69034147	     12.10874739	      5.70575495	     -3.31230973	     39.74477009	    -14.97099022	      2.07043507	     47.26544021	     47.26544021	     10.01416891	    -17.60329239	     15.10947694	    -14.71125265	      7.00807465	      3.53317571	     36.01021297	    -18.99561075	      6.11860650	     53.00770384	     45.27846907	      0.00000000	      0.00000000	     -2.35604113	     -7.89823794	     -5.77242077	     39.83769289	     47.17622990	      0.00000000	      0.00000000
     35.86657143	     -5.70189719	     -6.14258816	      0.85466670	      1.01078413	      0.92819246	      0.54386602	     10.38184008	      5.37657576	    -16.54418554	     14.17345654	     14.17345654	     12.29414428	      5.69297404	     -3.43886977	     39.88490139	    -14.71783443	      2.29420708	     44.07356953	     44.07356953	      9.57057125	    -16.60472870	     14.85369405	    -14.72277025	      6.88273807	      3.33468464	     37.93941811	    -18.85238455	      6.22937302	     55.40087322	     45.20093070	      0.00000000	      0.00000000	     -3.23523566	     -7.89166358	     -5.88368597	     37.20616730	     47.15229554	      0.00000000	      0.00000000
     35.87792857	     -6.00755618	     -6.26267659	      0.94921269	      1.00977698	      0.92737717	      0.54351060	     10.11318960	      5.53061791	    -16.54572272	     13.95425223	     13.95425223	     12.51349254	      5.71036650	     -3.56898086	     40.33308896	    -14.54803372	      2.75513530	     41.04511963	     41.04511963	      9.41537504	    -15.22905493	     14.97136334	    -14.52419861	      6.98995905	      3.60470217	     39.92059088	    -19.22993967	      6.01995285	     56.70457457	     45.17451600	      0.00000000	      0.00000000	     -4.28305429	     -7.79611848	     -5.90433471	     36.03850775	     47.13237668	      0.00000000	      0.00000000
     35.88928571	     -5.94477759	     -6.34929580	      1.08567268	      1.00952099	      0.92715531	      0.54316250	      9.02700103	      5.78511168	    -16.47018559	     13.01468811	     13.01468811	     12.61302943	      5.85476220	     -3.76158472	     40.14747677	    -14.50272970	      2.79968436	     37.89076715	     37.89076715	      9.17976519	    -13.17407812	     13.95691006	    -14.71998927	      7.12861906	      2.70551465	     41.61981941	    -18.38566656	      6.36461160	     60.92969207	     45.02624473	      0.00000000	      0.00000000	     -4.97319933	     -7.79966334	     -5.97530660	     32.05053038	     47.10624063	      0.00000000	      0.00000000
     35.90064286	     -6.11459742	     -6.46225674	      1.17133905	      1.00904157	      0.92648399	      0.54266719	      8.35558790	      5.99848035	    -16.44675250	     12.33507587	     12.33507587	     12.46497292	      5.89469080	     -4.49475893	     40.11913111	    -14.45320558	      2.78707026	     34.70972380	     34.70972380	      8.28260630	    -11.30815574	     11.72286267	    -14.69233695	      7.24526286	      3.99220345	     41.79183776	    -20.07335232	      6.26693842	     66.47369898	     44.86306752	      0.00000000	      0.00000000	     -3.92304035	     -7.40966769	     -6.50671517	     27.04418480	     47.15954297	      0.00000000	      0.00000000
     35.91200000	     -6.20369119	     -6.54066884	      1.22276144	      1.00891595	      0.92585001	      0.54209372	      7.60572838	      6.15008297	    -16.36668001	     11.78397572	     11.78397572	     12.77150076	      6.18908982	     -4.63985861	     39.92073678	    -14.38380599	      2.61784480	     31.75856188	     31.75856188	      8.27759518	     -9.32769410	     11.80877003	    -14.66264247	      7.32165277	      3.55246708	     43.52908630	    -19.45118178	      5.84832106	     68.81841233	     44.81498864	      0.00000000	      0.00000000	     -5.18371152	     -7.49825757	     -6.59867149	     25.88828430	     47.14223493	      0.00000000	      0.00000000
     35.92335714	     -6.30702498	     -6.71393820	      1.31888671	      1.00902356	      0.92505785	      0.54136589	      6.74285342	      6.41704070	    -16.40939397	     10.99453306	     10.99453306	     12.93935988	      6.65139995	     -4.94108314	     39.77541515	    -14.43330621	      2.20288098	     29.12369029	     29.12369029	      8.21397016	     -7.19469815	     11.68747021	    -14.60717722	      7.51220558	      3.62517404	     44.39111905	    -19.51817930	      5.11439026	     72.76440520	     44.73965227	      0.00000000	      0.00000000	     -5.98515433	     -7.46118143	     -6.79046854	     24.45978185	     47.12979482	      0.00000000	      0.00000000
     35.93471429	     -6.41348093	     -6.82345410	      1.34094350	      1.00919771	      0.92427834	      0.54055495	      5.99741460	      6.57318280	    -16.44075388	     10.45092436	     10.45092436	     13.14015347	      6.98521166	     -4.99995237	     39.49481045	    -14.37666027	      1.71291101	     26.64381175	     26.64381175	      8.10422728	     -5.76208950	     12.12930778	    -14.54480503	      7.64462905	      3.40636189	     46.01691935	    -18.81487268	      4.85974961	     75.11869595	     44.68700564	      0.00000000	      0.00000000	     -7.14356952	     -7.50112218	     -6.79062579	     23.68285327	     47.09842722	      0.00000000	      0.00000000
     35.94607143	     -6.49900641	     -6.91582936	      1.34001355	      1.00968142	      0.92345181	      0.53961478	      5.16879975	      6.71331801	    -16.44072980	      9.84037001	      9.84037001	     13.40722711	      7.42044493	     -5.04168777	     39.10241220	    -14.32674417	      0.91598163	     24.42919420	     24.42919420	      7.96177894	     -4.60038937	     12.60951300	    -14.42611848	      7.73471810	      3.12706579	     47.32509652	    -18.15273796	      4.64519274	     77.55586143	     44.62709336	      0.00000000	      0.00000000	     -8.36202859	     -7.53989431	     -6.78774310	     23.12913496	     47.06601310	      0.00000000	      0.00000000
